<svg width="1367" height="1165" viewBox="0 0 1367 1165" fill="none" xmlns="http://www.w3.org/2000/svg">
<path d="M3 730.577V868.073C3 881.803 21.9544 896.341 57.9923 913.557C130.105 948.016 530.424 1109.67 593.687 1139.9C656.955 1170.14 701.444 1170.54 781.53 1128.8C861.616 1087.06 1237.79 932.437 1310.41 894.598C1347.37 875.342 1363.7 860.432 1363.69 846.839L1363.72 711.289" stroke="#912626" stroke-width="6"/>
<path d="M55.2231 690.975C-15.6089 718.701 -14.0994 742.416 58.0083 776.875C130.116 811.312 530.418 972.991 593.687 1003.2C656.95 1033.44 701.439 1033.85 781.52 992.098C861.606 950.365 1237.77 795.738 1310.38 757.916C1383 720.083 1380.28 698.727 1309.5 672.791" stroke="#C6302B" stroke-width="6"/>
<path d="M3 508.1V645.612C3 659.348 21.9544 673.865 57.9923 691.081C130.105 725.54 530.418 887.207 593.687 917.426C656.955 947.66 701.444 948.064 781.53 906.336C861.616 864.582 1237.79 709.965 1310.41 672.122C1347.37 652.865 1363.7 637.955 1363.69 624.368L1363.72 488.801" stroke="#912626" stroke-width="6"/>
<path d="M55.2231 468.493C-15.6089 496.23 -14.0994 519.95 58.0083 554.398C130.116 588.841 530.418 750.514 593.687 780.727C656.95 810.962 701.439 811.371 781.52 769.638C861.606 727.888 1237.77 573.272 1310.38 535.439C1383 497.606 1380.28 476.245 1309.5 450.315" stroke="#C6302B" stroke-width="6"/>
<path d="M3 277.377V414.894C3 428.614 21.9544 443.136 57.9923 460.368C130.105 494.811 530.418 656.484 593.687 686.702C656.955 716.937 701.444 717.346 781.53 675.613C861.616 633.858 1237.79 479.231 1310.41 441.398C1347.37 422.136 1363.7 407.226 1363.69 393.65L1363.72 258.089" stroke="#912626" stroke-width="6"/>
<mask id="path-6-inside-1" fill="white">
<path d="M1310.38 304.716C1237.77 342.549 861.605 497.176 781.519 538.909C701.439 580.642 656.95 580.233 593.687 550.014C530.424 519.78 130.116 358.118 58.0135 323.669C-14.0995 289.226 -15.6037 265.501 55.223 237.769C126.055 210.043 524.167 53.912 608.309 23.7306C692.44 -6.44555 721.626 -7.52954 793.224 18.6933C864.827 44.9161 1238.75 193.693 1309.5 219.607C1380.28 245.516 1383 266.883 1310.38 304.716"/>
</mask>
<path d="M781.519 538.909L778.747 533.588L778.747 533.588L781.519 538.909ZM593.687 550.014L591.099 555.428L591.1 555.428L593.687 550.014ZM58.0135 323.669L60.6001 318.256L60.5995 318.255L58.0135 323.669ZM55.223 237.769L53.0359 232.182L53.0354 232.182L55.223 237.769ZM608.309 23.7306L606.283 18.0829L606.283 18.0829L608.309 23.7306ZM793.224 18.6933L791.16 24.3273L791.161 24.3273L793.224 18.6933ZM1309.5 219.607L1307.44 225.241L1307.44 225.242L1309.5 219.607ZM1307.61 299.395C1271.56 318.176 1159.69 366.159 1046.39 414.837C933.414 463.372 819.048 512.587 778.747 533.588L784.292 544.23C824.077 523.498 937.837 474.532 1051.12 425.862C1164.08 377.335 1276.59 329.089 1313.16 310.037L1307.61 299.395ZM778.747 533.588C739.056 554.273 708.813 564.17 681.02 565.45C653.331 566.725 627.411 559.474 596.273 544.6L591.1 555.428C623.225 570.773 651.182 578.836 681.572 577.437C711.86 576.043 743.902 565.279 784.292 544.23L778.747 533.588ZM596.274 544.601C564.454 529.394 448.324 481.324 331.462 432.879C214.344 384.329 96.4648 335.391 60.6001 318.256L55.427 329.083C91.6647 346.397 209.99 395.514 326.867 443.965C444.001 492.522 559.656 540.401 591.099 555.428L596.274 544.601ZM60.5995 318.255C42.7214 309.716 29.6135 302.019 20.9925 294.971C12.1915 287.776 9.17581 282.167 9.01128 277.968C8.85695 274.028 11.1728 269.029 19.2881 262.809C27.3081 256.662 39.8721 250.223 57.4106 243.356L53.0354 232.182C35.1606 239.181 21.3526 246.107 11.9882 253.285C2.71897 260.389 -3.36203 268.674 -2.97952 278.438C-2.6072 287.941 3.84769 296.455 13.3972 304.262C23.1267 312.216 37.2491 320.401 55.4276 329.084L60.5995 318.255ZM57.4101 243.356C128.321 215.599 526.3 59.5213 610.335 29.3782L606.283 18.0829C522.035 48.3028 123.789 204.486 53.0359 232.182L57.4101 243.356ZM610.335 29.3783C652.341 14.3115 679.899 6.79578 705.638 6.05987C731.251 5.32758 755.588 11.2986 791.16 24.3273L795.287 13.0592C759.263 -0.134924 733.208 -6.73326 705.295 -5.93523C677.509 -5.14081 648.408 2.97353 606.283 18.0829L610.335 29.3783ZM791.161 24.3273C826.876 37.4073 938.158 81.1176 1049.49 124.85C1160.71 168.54 1271.98 212.252 1307.44 225.241L1311.56 213.973C1276.27 201.047 1165.21 157.414 1053.88 113.681C942.655 69.9914 831.174 26.202 795.287 13.0592L791.161 24.3273ZM1307.44 225.242C1325 231.67 1337.87 237.658 1346.31 243.46C1354.92 249.379 1357.59 254.17 1357.72 257.893C1357.85 261.737 1355.39 267.159 1346.89 274.581C1338.58 281.835 1325.64 290.003 1307.61 299.395L1313.16 310.037C1331.44 300.511 1345.39 291.821 1354.78 283.62C1363.98 275.584 1370.03 266.952 1369.71 257.487C1369.39 247.901 1362.65 240.128 1353.11 233.571C1343.4 226.898 1329.39 220.499 1311.56 213.973L1307.44 225.242Z" fill="#C6302B" mask="url(#path-6-inside-1)"/>
<path d="M732.341 180.113L730.565 180.297L729.88 181.946L705.971 239.461L666.733 174.249L665.948 172.945L664.431 172.808L542.843 161.885L630.891 130.142L634.174 128.958L632.511 125.89L606.176 77.3181L692.91 111.229L693.913 111.621L694.936 111.286L777.683 84.2038L756.155 135.842L754.958 138.714L757.872 139.806L836.633 169.289L732.341 180.113ZM698.374 472.88L492.2 387.395L787.631 342.061L698.374 472.88ZM396.77 208.972C442.673 208.972 484.093 216.188 513.929 227.749C528.856 233.533 540.731 240.347 548.823 247.759C556.912 255.17 560.99 262.949 560.99 270.767C560.99 278.588 556.912 286.368 548.822 293.78C540.731 301.193 528.856 308.007 513.929 313.792C484.093 325.353 442.673 332.567 396.77 332.567C350.867 332.567 309.446 325.351 279.611 313.79C264.684 308.005 252.809 301.191 244.717 293.778C236.628 286.366 232.55 278.586 232.55 270.767C232.55 262.949 236.628 255.17 244.717 247.759C252.809 240.347 264.684 233.533 279.611 227.749C309.446 216.188 350.867 208.972 396.77 208.972Z" stroke="white" stroke-width="6"/>
<mask id="path-9-inside-2" fill="white">
<path d="M987.903 188.177L1173.07 261.324L988.062 334.403L987.903 188.172"/>
</mask>
<path d="M1173.07 261.324L1175.27 266.905L1189.4 261.325L1175.27 255.744L1173.07 261.324ZM988.062 334.403L982.062 334.409L982.072 343.22L990.267 339.983L988.062 334.403ZM985.698 193.757L1170.86 266.905L1175.27 255.744L990.107 182.597L985.698 193.757ZM1170.86 255.744L985.858 328.823L990.267 339.983L1175.27 266.905L1170.86 255.744ZM994.062 334.396L993.903 188.165L981.903 188.178L982.062 334.409L994.062 334.396Z" fill="#621B1C" mask="url(#path-9-inside-2)"/>
<path d="M967.982 339.033L791.211 269.182L984.908 192.587L985.06 332.356L967.982 339.033Z" stroke="#9A2928" stroke-width="6"/>
</svg>
